<svg width="148" height="148" fill="none" xmlns="http://www.w3.org/2000/svg"><path d="M0 0h4v4H0V0Zm24 0h4v4h-4V0Zm24 0h4v4h-4V0Zm24 0h4v4h-4V0Zm24 0h4v4h-4V0Zm24 0h4v4h-4V0Zm24 0h4v4h-4V0ZM0 24h4v4H0v-4Zm24 0h4v4h-4v-4Zm24 0h4v4h-4v-4Zm24 0h4v4h-4v-4Zm24 0h4v4h-4v-4Zm24 0h4v4h-4v-4Zm24 0h4v4h-4v-4ZM0 48h4v4H0v-4Zm24 0h4v4h-4v-4Zm24 0h4v4h-4v-4Zm24 0h4v4h-4v-4Zm24 0h4v4h-4v-4Zm24 0h4v4h-4v-4Zm24 0h4v4h-4v-4ZM0 72h4v4H0v-4Zm24 0h4v4h-4v-4Zm24 0h4v4h-4v-4Zm24 0h4v4h-4v-4Zm24 0h4v4h-4v-4Zm24 0h4v4h-4v-4Zm24 0h4v4h-4v-4ZM0 96h4v4H0v-4Zm24 0h4v4h-4v-4Zm24 0h4v4h-4v-4Zm24 0h4v4h-4v-4Zm24 0h4v4h-4v-4Zm24 0h4v4h-4v-4Zm24 0h4v4h-4v-4ZM0 120h4v4H0v-4Zm24 0h4v4h-4v-4Zm24 0h4v4h-4v-4Zm24 0h4v4h-4v-4Zm24 0h4v4h-4v-4Zm24 0h4v4h-4v-4Zm24 0h4v4h-4v-4ZM0 144h4v4H0v-4Zm24 0h4v4h-4v-4Zm24 0h4v4h-4v-4Zm24 0h4v4h-4v-4Zm24 0h4v4h-4v-4Zm24 0h4v4h-4v-4Zm24 0h4v4h-4v-4Z" opacity=".3" fill="#C4C4C4"/></svg>